<svg xmlns="http://www.w3.org/2000/svg" xmlns:xlink="http://www.w3.org/1999/xlink" version="1.1" x="0" y="0" width="512" height="512" viewBox="0 0 512 512" enable-background="new 0 0 512 512" xml:space="preserve"><path id="light-bulb-5-icon" d="M299.82 364.41h-87.65c-6.14 0-11.12 4.98-11.12 11.12 0 6.14 4.98 11.12 11.12 11.12h87.65c6.14 0 11.12-4.98 11.12-11.12C310.95 369.39 305.97 364.41 299.82 364.41zM297.82 401.44h-83.64c-6.14 0-11.12 4.98-11.12 11.12s4.98 11.12 11.12 11.12h83.65c6.14 0 11.12-4.98 11.12-11.12S303.96 401.44 297.82 401.44zM214.75 437.96C236.41 457.98 238.64 462 247.28 462h16.65c8.45 0 10.53-3.73 33.32-24.04H214.75zM382.62 171.45c0 75.31-64.77 117.51-64.77 176.94h-29.49c0.03-73.25 64.23-111.83 64.23-176.94 0-121.89-193.19-122.08-193.19 0 0 65.06 63.09 101.98 64.56 176.94h-29.82c0-59.43-64.77-101.63-64.77-176.94C129.38 9.6 382.62 9.43 382.62 171.45zM263.15 204.29h-12.01v-14.68h12.01V204.29zM280.2 204.29h-8.59v-14.68h14.06L280.2 204.29zM233.72 204.29l-5.65-14.68h14.52v14.68H233.72zM308.98 189.69c-28.26 63.64-41.43 90.17-41.43 158.89h-21.62c0-68.73-13.18-95.25-41.43-158.89h13.53c20.4 49.65 34.64 71.85 38.72 124.52 4.08-52.66 18.32-74.87 38.72-124.52H308.98z"/></svg>