<svg xmlns="http://www.w3.org/2000/svg" xmlns:xlink="http://www.w3.org/1999/xlink" version="1.1" x="0" y="0" width="512" height="512" viewBox="0 0 512 512" enable-background="new 0 0 512 512" xml:space="preserve"><path id="key-2-icon" stroke="#000000" stroke-miterlimit="10" d="M286.53 325.49l-45.31 45.31h-43.87l0 43.87 -45.75 0v41.35l-100 0 150.08-150.08c-4.58-4.69-10.06-11.39-13.69-17.42L50 426.5v-40.94l145.74-145.74C212.17 279 244.71 310.71 286.53 325.49zM425.65 92.34c48.47 48.47 48.47 127.06 0 175.54 -48.48 48.48-127.06 48.48-175.54 0 -48.47-48.47-48.47-127.06 0-175.54C298.58 43.87 377.17 43.87 425.65 92.34zM400.73 117.17c-12.02-12.02-31.52-12.02-43.54 0 -12.02 12.02-12.02 31.52 0 43.54s31.51 12.02 43.54 0C412.75 148.68 412.75 129.19 400.73 117.17z"/></svg>