<svg xmlns="http://www.w3.org/2000/svg" xmlns:xlink="http://www.w3.org/1999/xlink" version="1.1" x="0" y="0" width="512" height="512" viewBox="0 0 512 512" enable-background="new 0 0 512 512" xml:space="preserve"><path id="quote-11-icon" d="M256 65.35c-108.81 0-206 73.25-206 173.43 0 35.53 12.68 70.42 35.14 97.49C86.08 368 67.58 413.5 50.92 446.65c44.67-8.15 108.17-26.15 136.96-43.95C346.44 441.64 462 343.68 462 238.78 462 138.05 364.13 65.35 256 65.35zM246.45 234.18c0 45.39-28.68 76.16-70.48 84.43l-7.92-17.12c19.36-7.3 31.63-24.76 31.63-42.35h-32.67v-75.73h79.44C246.45 183.4 246.45 207.58 246.45 234.18zM357.99 234.18c0 45.39-28.68 76.16-70.48 84.43l-7.92-17.12c19.35-7.3 31.63-24.76 31.63-42.35h-32.67v-75.73h79.44C357.99 183.4 357.99 207.58 357.99 234.18z"/></svg>