<svg xmlns="http://www.w3.org/2000/svg" xmlns:xlink="http://www.w3.org/1999/xlink" version="1.1" x="0" y="0" width="512" height="512" viewBox="0 0 512 512" xml:space="preserve" enable-background="new 0 0 512 512"><path id="sitemap-18-icon" d="M349.47 370.02l-93.29-93.29 -93.46 93.46c-5.94-8.13-13.29-15.16-21.68-20.75l100.13-100.13v-50.67c10.38 1.86 20.24 1.75 30.02 0v50.67l100.03 100.03C362.81 354.91 355.44 361.91 349.47 370.02zM256.17 80c19.3 0 35 15.7 35 35s-15.7 35-35 35c-19.3 0-35-15.7-35-35S236.87 80 256.17 80zM256.17 50c-35.9 0-65 29.1-65 65s29.1 65 65 65c35.9 0 65-29.1 65-65S292.07 50 256.17 50zM256 358c-28.72 0-52 23.28-52 52s23.28 52 52 52 52-23.28 52-52S284.72 358 256 358zM410 358c-28.72 0-52 23.28-52 52s23.28 52 52 52 52-23.28 52-52S438.72 358 410 358zM102 358c-28.72 0-52 23.28-52 52s23.28 52 52 52 52-23.28 52-52S130.72 358 102 358z"/></svg>