<svg xmlns="http://www.w3.org/2000/svg" xmlns:xlink="http://www.w3.org/1999/xlink" version="1.1" x="0" y="0" width="512" height="512" viewBox="0 0 512 512" xml:space="preserve" enable-background="new 0 0 512 512"><path id="id-card-14-icon" d="M74.11 331.53L60.64 155.07h390l-13.85 176.46h-37.49l9.34-139.46h-307l10.34 139.46H74.11zM401.49 82.8l4-25H107.58l4 25H401.49zM367.82 263.6h-89.78l-0.22 23.17h88.6L367.82 263.6zM423.74 133.3l4-30H82.58l4 30H423.74zM370.46 219.84h-92.01l-0.22 23.17h90.83L370.46 219.84zM363.79 330.53l1.4-23.17h-58.09l-0.62 23.17H363.79zM160.92 302.83c-17.91 3.73-15.92 12.24-14.84 27.7h124.77c0.08-15.46 1.52-23.98-16.63-27.7 -18.24-3.73-35.29-6.99-27.34-20.73 25.02-41.81 5.63-64.18-22.05-64.18 -28.22 0-45.65 23.22-17.91 64.18C196.01 295.92 178.53 299.18 160.92 302.83zM461.94 356.53H462l-21 97.67H70l-20-97.67h0.06H461.94z"/></svg>